<?xml version="1.0" encoding="UTF-8"?>
<svg fill="none" viewBox="0 0 141 38" xmlns="http://www.w3.org/2000/svg">
	<path d="m10.864 28.985c-1.9973 0-3.7642-0.4545-5.3006-1.3635-1.5364-0.9219-2.7399-2.183-3.6105-3.7834-0.87062-1.6004-1.3059-3.4057-1.3059-5.4158 0-2.0229 0.43532-3.8218 1.3059-5.3966 0.87063-1.5748 2.0741-2.8103 3.6105-3.7066 1.5364-0.89623 3.3032-1.3444 5.3006-1.3444 1.9973 0 3.7642 0.44812 5.3006 1.3444 1.5364 0.89625 2.7399 2.1318 3.6105 3.7066s1.3059 3.3737 1.3059 5.3966c0 2.0101-0.4353 3.8154-1.3059 5.4158s-2.0741 2.8615-3.6105 3.7834c-1.5364 0.909-3.3033 1.3635-5.3006 1.3635zm0-2.1701c1.5364 0 2.8871-0.3585 4.0522-1.0755 1.1779-0.717 2.0998-1.7093 2.7655-2.9768 0.6658-1.2675 0.9987-2.7143 0.9987-4.3403 0-1.6388-0.3329-3.0792-0.9987-4.3211-0.6657-1.2419-1.5876-2.2086-2.7655-2.9-1.1651-0.7041-2.5158-1.0562-4.0522-1.0562-1.5236 0-2.8744 0.3521-4.0523 1.0562-1.1779 0.6914-2.0997 1.6581-2.7655 2.9-0.66577 1.2419-0.99865 2.6823-0.99865 4.3211 0 1.626 0.33288 3.0728 0.99865 4.3403 0.66578 1.2675 1.5876 2.2598 2.7655 2.9768 1.1779 0.717 2.5286 1.0755 4.0523 1.0755zm12.937 10.217v-28.788h2.3814v28.788h-2.3814zm9.4104-8.0277c-1.562 0-3.0088-0.3777-4.3403-1.1331s-2.407-1.7796-3.2264-3.0728c-0.8066-1.2931-1.2099-2.7463-1.2099-4.3595v-0.096-0.0768l1.7476-0.0384v0.0768 0.0768c0 1.1523 0.3137 2.215 0.941 3.188 0.6274 0.9731 1.4468 1.7477 2.4583 2.3238 1.0242 0.5762 2.1317 0.8643 3.3224 0.8643 1.9718 0 3.5914-0.6978 4.8589-2.0934 1.2803-1.4084 1.9205-3.4825 1.9205-6.2224 0-2.7527-0.6402-4.8268-1.9205-6.2224-1.2675-1.3956-2.8871-2.0933-4.8589-2.0933-1.1907 0-2.2982 0.288-3.3224 0.8642-1.0115 0.5761-1.8309 1.3443-2.4583 2.3046-0.6273 0.9602-0.941 2.0229-0.941 3.188l-1.7476-0.0576c0-1.6132 0.4033-3.06 1.2099-4.3403 0.8194-1.2804 1.8949-2.2854 3.2264-3.0152 1.3315-0.74259 2.7783-1.1139 4.3403-1.1139 1.6516 0 3.1496 0.4097 4.494 1.2291 1.3443 0.80661 2.4134 1.9909 3.2072 3.5529 0.8066 1.562 1.2099 3.4633 1.2099 5.7039 0 2.2662-0.3969 4.1867-1.1907 5.7615-0.781 1.5748-1.8501 2.7719-3.2072 3.5913-1.3444 0.8066-2.8487 1.2099-4.5132 1.2099zm12.082-9.564v-2.1318h16.516l-0.4609 0.653v-0.1921-0.192c0-1.3188-0.2817-2.5479-0.8451-3.6874-0.5633-1.1395-1.3827-2.0549-2.4582-2.7463-1.0627-0.6914-2.3622-1.037-3.8986-1.037-1.562 0-2.9384 0.3584-4.1291 1.0754-1.1907 0.7042-2.1189 1.6837-2.7847 2.9384-0.6658 1.2419-0.9987 2.6887-0.9987 4.3403 0 1.6644 0.3265 3.1304 0.9795 4.3979 0.6658 1.2548 1.594 2.2342 2.7847 2.9384 1.1907 0.6914 2.5799 1.0371 4.1675 1.0371 1.1651 0 2.1766-0.1409 3.0344-0.4225 0.8706-0.2945 1.5876-0.6786 2.1509-1.1523 0.5762-0.4738 1.0115-0.9731 1.306-1.498 0.3073-0.5378 0.4865-1.0435 0.5377-1.5172h2.3622c-0.0512 0.7554-0.2945 1.53-0.7298 2.3238-0.4225 0.781-1.0306 1.5108-1.8244 2.1894-0.781 0.6785-1.7541 1.2291-2.9192 1.6516-1.1523 0.4097-2.4838 0.6145-3.9946 0.6145-1.9717 0-3.7258-0.4481-5.2622-1.3443-1.5236-0.8962-2.7271-2.1318-3.6105-3.7066-0.8706-1.5876-1.306-3.412-1.306-5.4734 0-2.0741 0.4418-3.8986 1.3252-5.4734 0.8834-1.5876 2.0933-2.8295 3.6297-3.7258 1.5364-0.89623 3.2841-1.3443 5.243-1.3443 1.9973 0 3.7257 0.45451 5.1853 1.3636 1.4596 0.90905 2.5863 2.1446 3.3801 3.7066 0.7938 1.5492 1.1907 3.2905 1.1907 5.2238 0 0.1664-0.0064 0.3777-0.0192 0.6337 0 0.2561-0.0064 0.4417-0.0192 0.557h-18.533zm35.956 9.1991v-10.14-1.498-1.0947c0-1.1394-0.2049-2.1317-0.6146-2.9767-0.3969-0.8578-1.0115-1.5236-1.8437-1.9973-0.8322-0.4866-1.9013-0.7298-3.2072-0.7298-1.1523 0-2.2342 0.2881-3.2456 0.8642-1.0115 0.5633-1.8309 1.3315-2.4583 2.3046-0.6145 0.973-0.9218 2.0677-0.9218 3.284l-1.4404-0.5377c0-1.5492 0.3969-2.9384 1.1907-4.1675 0.8066-1.2291 1.8565-2.2021 3.1496-2.9191 1.306-0.71698 2.6887-1.0755 4.1483-1.0755 1.5492 0 2.8936 0.29447 4.033 0.88342 1.1395 0.57615 2.0166 1.4148 2.6311 2.5159 0.6274 1.0883 0.9411 2.4134 0.9411 3.9754v1.7284 1.6709 9.9097h-2.3622zm-14.673 0v-20.396h2.3814v20.396h-2.3814z" fill="#fff"/>
	<path d="m132.18 22.27c0.239 1.4536 2.136 2.2331 3.39 0.7183 0.94-1.1363 2.623-1.2954 3.759-0.3554s1.296 2.6232 0.355 3.7595c-4.4 5.3187-12.563 2.4591-12.841-4.2482-0.011-0.0951-0.016-0.189-0.016-0.2812l0.012-13.88c0-1.3819 1.196-2.5021 2.67-2.5021 1.475 0 2.671 1.1202 2.671 2.5021v14.287z" clip-rule="evenodd" fill="url(#g)" fill-rule="evenodd"/>
	<path d="m102.29 7.4876c1.277 0.73737 1.714 2.3705 0.977 3.6476l-9.4145 16.306c-0.7373 1.2771-2.3704 1.7147-3.6476 0.9773-1.2771-0.7373-1.7147-2.3704-0.9774-3.6476l9.4145-16.306c0.7373-1.2772 2.37-1.7148 3.648-0.97738z" clip-rule="evenodd" fill="url(#f)" fill-rule="evenodd"/>
	<path d="m116.74 28.916c-1.475 0-2.67-1.1956-2.67-2.6703v-14.215c0-1.4747 1.195-2.6702 2.67-2.6702s2.67 1.1955 2.67 2.6702v14.215c0 1.4747-1.195 2.6703-2.67 2.6703z" clip-rule="evenodd" fill="url(#e)" fill-rule="evenodd"/>
	<path d="m118.98 18.283-0.982 0.0201-3.931-0.0264c0.036-1.003 0.637-2.8693 1.092-3.7427 0.476-0.9128 1.152-1.8524 2.009-2.6587 1.722-1.6216 4.456-2.9065 7.634-1.7146 1.266 0.4745 1.908 1.8854 1.433 3.1512-0.474 1.2658-1.885 1.9072-3.151 1.4326-0.892-0.3344-1.72-0.0962-2.56 0.6949-0.425 0.4001-0.779 0.7406-1.024 1.3575-0.12 0.5709-0.093 1.4795-0.093 1.4795l-0.427 0.0066z" clip-rule="evenodd" fill="url(#d)" fill-rule="evenodd"/>
	<path d="m126.83 12.594v-2.2614h8.787c1.001 0 2.341 0.9689 2.341 2.3208 0.119 1.2969-0.943 2.5747-2.341 2.5747h-8.775l-0.012-2.6341z" clip-rule="evenodd" fill="url(#c)" fill-rule="evenodd"/>
	<g opacity=".2" style="mix-blend-mode:overlay">
		<path d="m126.84 15.25h5.321v2.3149h-5.321v-2.3149z" fill="url(#b)"/>
	</g>
	<path d="m98.479 8.8032c0.2149-0.53514 0.604-1.0049 1.1422-1.3156 1.2767-0.73737 2.9107-0.29978 3.6477 0.97738l9.414 16.306c0.738 1.2772 0.3 2.9103-0.977 3.6476-1.277 0.7374-2.91 0.2998-3.648-0.9773l-7.137-12.361 0.039 0.0997c-1.4158-2.8135-3.602-3.1134-4.5181-2.9116l2.0263-3.4932 0.0109 0.02813z" clip-rule="evenodd" fill="url(#a)" fill-rule="evenodd"/>
	<defs>
		<linearGradient id="g" x1="126.83" x2="145.2" y1="5.4811" y2="10.23" gradientUnits="userSpaceOnUse">
			<stop stop-color="#9D0AFC" offset="0"/>
			<stop stop-color="#0359FF" offset="1"/>
		</linearGradient>
		<linearGradient id="f" x1="100.26" x2="104.58" y1="10.216" y2="15.407" gradientUnits="userSpaceOnUse">
			<stop stop-color="#00DFBA" offset="0"/>
			<stop stop-color="#048AFE" offset="1"/>
		</linearGradient>
		<linearGradient id="e" x1="116.81" x2="116.81" y1="10.075" y2="30.589" gradientUnits="userSpaceOnUse">
			<stop stop-color="#5900EB" offset="0"/>
			<stop stop-color="#E367EE" offset="1"/>
		</linearGradient>
		<linearGradient id="d" x1="116.39" x2="127.27" y1="18.328" y2="11.038" gradientUnits="userSpaceOnUse">
			<stop stop-color="#9129EC" offset="0"/>
			<stop stop-color="#9F03FF" offset="1"/>
		</linearGradient>
		<linearGradient id="c" x1="132.67" x2="138.88" y1="11.593" y2="18.084" gradientUnits="userSpaceOnUse">
			<stop stop-color="#930FFC" offset="0"/>
			<stop stop-color="#004BFB" offset=".86514"/>
		</linearGradient>
		<linearGradient id="b" x1="129.5" x2="129.5" y1="15.293" y2="17.302" gradientUnits="userSpaceOnUse">
			<stop offset="0"/>
			<stop stop-opacity="0" offset="1"/>
		</linearGradient>
		<linearGradient id="a" x1="95.835" x2="121.87" y1="7.3282" y2="13.844" gradientUnits="userSpaceOnUse">
			<stop stop-color="#0056FE" offset="0"/>
			<stop stop-color="#D159ED" offset=".81562"/>
		</linearGradient>
	</defs>
</svg>
