<?xml version="1.0" encoding="UTF-8"?>
<svg fill="none" viewBox="0 0 140 38" xmlns="http://www.w3.org/2000/svg">
	<path d="m10.31 29.303c-1.9973 0-3.7642-0.4545-5.3006-1.3635-1.5364-0.9219-2.7399-2.183-3.6105-3.7834-0.87063-1.6004-1.3059-3.4057-1.3059-5.4158 0-2.0229 0.43531-3.8218 1.3059-5.3966 0.87062-1.5748 2.0741-2.8103 3.6105-3.7066 1.5364-0.89623 3.3032-1.3444 5.3006-1.3444 1.9973 0 3.7642 0.44812 5.3006 1.3444 1.5364 0.89626 2.7399 2.1318 3.6105 3.7066s1.306 3.3737 1.306 5.3966c0 2.0101-0.4354 3.8154-1.306 5.4158s-2.0741 2.8615-3.6105 3.7834c-1.5364 0.909-3.3033 1.3635-5.3006 1.3635zm0-2.1701c1.5364 0 2.8872-0.3585 4.0523-1.0755 1.1779-0.717 2.0997-1.7093 2.7655-2.9768 0.6657-1.2675 0.9986-2.7143 0.9986-4.3403 0-1.6388-0.3329-3.0792-0.9986-4.3211-0.6658-1.2419-1.5876-2.2086-2.7655-2.9-1.1651-0.7042-2.5159-1.0562-4.0523-1.0562-1.5236 0-2.8743 0.352-4.0522 1.0562-1.1779 0.6914-2.0997 1.6581-2.7655 2.9s-0.99866 2.6823-0.99866 4.3211c0 1.626 0.33289 3.0728 0.99866 4.3403s1.5876 2.2598 2.7655 2.9768c1.1779 0.717 2.5287 1.0755 4.0522 1.0755zm12.937 10.217v-28.788h2.3814v28.788h-2.3814zm9.4104-8.0277c-1.562 0-3.0087-0.3777-4.3403-1.1331-1.3315-0.7554-2.407-1.7796-3.2264-3.0728-0.8066-1.2931-1.2099-2.7463-1.2099-4.3595v-0.096-0.0768l1.7476-0.0384v0.0768 0.0768c0 1.1523 0.3137 2.215 0.9411 3.188 0.6273 0.9731 1.4467 1.7477 2.4582 2.3238 1.0243 0.5762 2.1318 0.8642 3.3225 0.8642 1.9717 0 3.5913-0.6977 4.8588-2.0933 1.2804-1.4084 1.9205-3.4825 1.9205-6.2224 0-2.7527-0.6401-4.8269-1.9205-6.2224-1.2675-1.3956-2.8871-2.0934-4.8588-2.0934-1.1907 0-2.2982 0.2881-3.3225 0.8643-1.0115 0.5761-1.8309 1.3443-2.4582 2.3046-0.6274 0.9602-0.9411 2.0229-0.9411 3.188l-1.7476-0.0576c0-1.6132 0.4033-3.06 1.2099-4.3403 0.8194-1.2804 1.8949-2.2854 3.2264-3.0152 1.3316-0.74259 2.7783-1.1139 4.3403-1.1139 1.6517 0 3.1497 0.4097 4.494 1.2291 1.3444 0.8066 2.4134 1.9909 3.2072 3.5529 0.8066 1.562 1.2099 3.4633 1.2099 5.7039 0 2.2662-0.3969 4.1867-1.1907 5.7615-0.781 1.5748-1.85 2.7719-3.2072 3.5913-1.3443 0.8066-2.8487 1.2099-4.5132 1.2099zm12.082-9.564v-2.1318h16.516l-0.4609 0.653v-0.1921-0.192c0-1.3188-0.2817-2.5479-0.845-3.6874-0.5634-1.1395-1.3828-2.0549-2.4583-2.7463-1.0626-0.6914-2.3622-1.0371-3.8986-1.0371-1.562 0-2.9383 0.3585-4.129 1.0755-1.1908 0.7042-2.119 1.6837-2.7848 2.9384-0.6657 1.2419-0.9986 2.6887-0.9986 4.3403 0 1.6644 0.3265 3.1304 0.9794 4.3979 0.6658 1.2548 1.594 2.2342 2.7847 2.9384 1.1908 0.6914 2.5799 1.0371 4.1675 1.0371 1.1651 0 2.1766-0.1409 3.0344-0.4225 0.8706-0.2945 1.5876-0.6786 2.151-1.1523 0.5761-0.4738 1.0114-0.9731 1.3059-1.498 0.3073-0.5378 0.4865-1.0435 0.5377-1.5172h2.3623c-0.0513 0.7554-0.2945 1.53-0.7298 2.3238-0.4225 0.781-1.0307 1.5108-1.8245 2.1893-0.781 0.6786-1.7541 1.2292-2.9192 1.6517-1.1523 0.4097-2.4838 0.6145-3.9946 0.6145-1.9717 0-3.7258-0.4481-5.2622-1.3443-1.5235-0.8962-2.7271-2.1318-3.6105-3.7066-0.8706-1.5876-1.3059-3.4121-1.3059-5.4734 0-2.0741 0.4417-3.8986 1.3251-5.4734 0.8834-1.5876 2.0934-2.8295 3.6298-3.7258 1.5364-0.89623 3.284-1.3443 5.2429-1.3443 1.9973 0 3.7258 0.45451 5.1853 1.3636 1.4596 0.90906 2.5863 2.1446 3.3801 3.7066 0.7938 1.5492 1.1907 3.2904 1.1907 5.2237 0 0.1665-0.0064 0.3777-0.0192 0.6338 0 0.2561-0.0064 0.4417-0.0192 0.557h-18.533zm35.956 9.1991v-10.14-1.498-1.0947c0-1.1395-0.2049-2.1317-0.6146-2.9767-0.3969-0.8578-1.0114-1.5236-1.8436-1.9973-0.8323-0.4866-1.9013-0.7298-3.2073-0.7298-1.1523 0-2.2342 0.288-3.2456 0.8642-1.0115 0.5633-1.8309 1.3315-2.4583 2.3046-0.6145 0.973-0.9218 2.0677-0.9218 3.284l-1.4404-0.5377c0-1.5492 0.3969-2.9384 1.1907-4.1675 0.8067-1.2291 1.8565-2.2022 3.1497-2.9191 1.3059-0.71698 2.6887-1.0755 4.1482-1.0755 1.5492 0 2.8936 0.29447 4.0331 0.88343 1.1395 0.57614 2.0165 1.4148 2.6311 2.5159 0.6273 1.0882 0.941 2.4134 0.941 3.9754v1.7284 1.6709 9.9097h-2.3622zm-14.673 0v-20.396h2.3814v20.396h-2.3814z" fill="#222"/>
	<path d="m131.18 22.754c0.239 1.4537 2.136 2.2331 3.39 0.7183 0.94-1.1363 2.623-1.2954 3.759-0.3553 1.136 0.94 1.296 2.6232 0.355 3.7595-4.4 5.3187-12.563 2.4591-12.841-4.2482-0.011-0.0951-0.016-0.189-0.016-0.2812l0.012-13.88c0-1.3819 1.196-2.5021 2.67-2.5021 1.475 0 2.671 1.1202 2.671 2.5021v14.287z" clip-rule="evenodd" fill="url(#g)" fill-rule="evenodd"/>
	<path d="m101.29 7.9718c1.277 0.73737 1.715 2.3705 0.977 3.6477l-9.4142 16.306c-0.7374 1.2771-2.3705 1.7147-3.6476 0.9773-1.2772-0.7373-1.7148-2.3704-0.9774-3.6476l9.4144-16.306c0.7374-1.2772 2.3708-1.7148 3.6478-0.97738z" clip-rule="evenodd" fill="url(#f)" fill-rule="evenodd"/>
	<path d="m115.74 29.4c-1.475 0-2.67-1.1955-2.67-2.6703v-14.215c0-1.4747 1.195-2.6702 2.67-2.6702s2.67 1.1955 2.67 2.6702v14.215c0 1.4748-1.195 2.6703-2.67 2.6703z" clip-rule="evenodd" fill="url(#e)" fill-rule="evenodd"/>
	<path d="m117.98 18.767-0.982 0.02-3.931-0.0264c0.036-1.003 0.637-2.8692 1.092-3.7426 0.476-0.9129 1.153-1.8525 2.009-2.6587 1.722-1.6216 4.456-2.9065 7.635-1.7147 1.265 0.4746 1.907 1.8854 1.432 3.1512-0.474 1.2658-1.885 1.9072-3.151 1.4327-0.892-0.3345-1.72-0.0963-2.56 0.6948-0.425 0.4002-0.778 0.7406-1.024 1.3575-0.119 0.571-0.093 1.4795-0.093 1.4795l-0.427 0.0067z" clip-rule="evenodd" fill="url(#d)" fill-rule="evenodd"/>
	<path d="m125.83 13.078v-2.2615l8.787 1e-4c1 0 2.341 0.9689 2.341 2.3207 0.119 1.2969-0.943 2.5748-2.341 2.5748h-8.775l-0.012-2.6341z" clip-rule="evenodd" fill="url(#c)" fill-rule="evenodd"/>
	<g opacity=".2" style="mix-blend-mode:overlay">
		<path d="m125.84 15.734h5.321v2.3149h-5.321v-2.3149z" fill="url(#b)"/>
	</g>
	<path d="m97.479 9.2871c0.2149-0.53514 0.604-1.0049 1.1421-1.3156 1.2772-0.73737 2.91-0.29978 3.648 0.97738l9.414 16.306c0.737 1.2772 0.3 2.9103-0.977 3.6477-1.277 0.7373-2.911 0.2997-3.648-0.9774l-7.1368-12.361 0.0388 0.0997c-1.416-2.8135-3.6023-3.1133-4.5183-2.9116l2.0262-3.4932 0.011 0.02813z" clip-rule="evenodd" fill="url(#a)" fill-rule="evenodd"/>
	<defs>
		<linearGradient id="g" x1="125.83" x2="144.2" y1="5.9658" y2="10.714" gradientUnits="userSpaceOnUse">
			<stop stop-color="#9D0AFC" offset="0"/>
			<stop stop-color="#0359FF" offset="1"/>
		</linearGradient>
		<linearGradient id="f" x1="99.265" x2="103.58" y1="10.7" y2="15.891" gradientUnits="userSpaceOnUse">
			<stop stop-color="#00DFBA" offset="0"/>
			<stop stop-color="#048AFE" offset="1"/>
		</linearGradient>
		<linearGradient id="e" x1="115.81" x2="115.81" y1="10.559" y2="31.073" gradientUnits="userSpaceOnUse">
			<stop stop-color="#5900EB" offset="0"/>
			<stop stop-color="#E367EE" offset="1"/>
		</linearGradient>
		<linearGradient id="d" x1="115.39" x2="126.27" y1="18.812" y2="11.522" gradientUnits="userSpaceOnUse">
			<stop stop-color="#9129EC" offset="0"/>
			<stop stop-color="#9F03FF" offset="1"/>
		</linearGradient>
		<linearGradient id="c" x1="131.67" x2="137.88" y1="12.077" y2="18.568" gradientUnits="userSpaceOnUse">
			<stop stop-color="#930FFC" offset="0"/>
			<stop stop-color="#004BFB" offset=".86514"/>
		</linearGradient>
		<linearGradient id="b" x1="128.5" x2="128.5" y1="15.777" y2="17.786" gradientUnits="userSpaceOnUse">
			<stop offset="0"/>
			<stop stop-opacity="0" offset="1"/>
		</linearGradient>
		<linearGradient id="a" x1="94.834" x2="120.87" y1="7.8121" y2="14.328" gradientUnits="userSpaceOnUse">
			<stop stop-color="#0056FE" offset="0"/>
			<stop stop-color="#D159ED" offset=".81562"/>
		</linearGradient>
	</defs>
</svg>
