<?xml version="1.0" encoding="UTF-8"?>
<svg width="512pt" height="512pt" version="1.1" viewBox="0 0 512 512" xmlns="http://www.w3.org/2000/svg">
	<g transform="translate(-94.008,-24)" fill="#fffbff" style="mix-blend-mode:normal">
		<path d="m366.8 204.4c0 23.195-18.805 42-42 42s-42-18.805-42-42 18.805-42 42-42 42 18.805 42 42z"/>
		<path d="m542.48 158.37-184.8-94.91c-4.8164-2.4766-10.535-2.4766-15.348 0l-184.8 94.91c-5.6016 2.8789-9.1211 8.6445-9.1211 14.945v213.37c0 6.3008 3.5234 12.066 9.1211 14.945l184.8 94.91c4.8164 2.4766 10.535 2.4766 15.348 0l184.8-94.91c5.6016-2.8789 9.1211-8.6445 9.1211-14.945l4e-3 -213.37c0-6.2969-3.5234-12.066-9.125-14.945zm-24.477 126.63c-24.199-19.797-51.289-38.598-67.199-38.598-23.051 0-69.199 38.938-95.961 63.426 10.035 7.332 17.332 13.016 19.695 14.879 5.4648 4.3008 6.4023 12.227 2.0938 17.684-4.3047 5.4922-12.227 6.4023-17.695 2.1016-39.34-31.008-92.48-64.488-109.73-64.488-1.293 0-2.7812 0.33984-4.2188 0.58203-13.938 3.3672-38.703 21.293-62.984 41.836l4e-3 -138.86 168-86.277 168 86.277z"/>
	</g>
</svg>
